<svg width="44" height="55" viewBox="0 0 44 55" fill="none" xmlns="http://www.w3.org/2000/svg">
<rect x="0.2" y="5.2" width="43.6" height="43.6" rx="11.8" fill="white" stroke="#4F81EF" stroke-width="0.4"/>
<path d="M21.6667 12.3333L25 15.6667H22.3333L19 12.3333L22.3333 9H25L21.6667 12.3333Z" fill="#2563EB" fill-opacity="0.81"/>
<path d="M12.0703 41.1775C12.2806 39.8761 12.4647 38.7457 12.6224 37.7861C12.7933 36.8134 12.9444 35.9524 13.0759 35.2031C13.2073 34.4539 13.3191 33.7835 13.4111 33.192C13.5162 32.5873 13.6148 32.0024 13.7068 31.4371C13.812 30.8588 13.9106 30.2672 14.0026 29.6626C14.0946 29.0579 14.1998 28.3744 14.3181 27.612C14.3838 26.9547 14.3904 26.4027 14.3378 25.9557C14.2984 25.4957 14.1866 25.0553 14.0026 24.6347C13.8317 24.2009 13.5885 23.7474 13.2731 23.2742C12.9576 22.7878 12.5698 22.1832 12.1097 21.4602C12.3726 21.3025 12.6093 21.1579 12.8196 21.0264C13.0299 20.895 13.2468 20.7635 13.4702 20.6321C13.6937 20.5006 13.9303 20.3626 14.1801 20.218C14.443 20.0603 14.7584 19.8762 15.1265 19.6659C15.4288 20.0866 15.6851 20.4546 15.8955 20.7701C16.1189 21.0856 16.3161 21.3813 16.487 21.6574C16.6579 21.9203 16.809 22.1832 16.9405 22.4461C17.0719 22.709 17.2034 22.985 17.3348 23.2742C17.8869 22.7615 18.4127 22.308 18.9122 21.9137C19.4249 21.5062 19.9441 21.171 20.4699 20.9081C20.9957 20.6321 21.5543 20.4218 22.1458 20.2772C22.7374 20.1326 23.388 20.0603 24.0978 20.0603C25.833 20.0603 27.2789 20.5138 28.4356 21.4208C29.5924 22.3146 30.3614 23.6948 30.7426 25.5614C30.8477 26.0872 30.92 26.7444 30.9594 27.5331C31.012 28.3087 31.0449 29.1171 31.058 29.9583C31.0843 30.7865 31.0909 31.6014 31.0778 32.4033C31.0778 33.192 31.0778 33.8689 31.0778 34.4342C31.0646 35.3411 31.0449 36.2087 31.0186 37.0368C30.9923 37.865 30.9594 38.5551 30.92 39.1071C30.8937 39.3963 30.8674 39.6987 30.8411 40.0141C30.8149 40.3296 30.7754 40.6582 30.7228 41H21.0022V38.003H27.6075C27.6207 37.7795 27.6338 37.5363 27.6469 37.2734C27.6732 37.0105 27.6864 36.6622 27.6864 36.2284C27.6995 35.7815 27.7061 35.2097 27.7061 34.513C27.7192 33.8032 27.7258 32.8962 27.7258 31.792C27.7258 31.2925 27.7192 30.7865 27.7061 30.2738C27.693 29.748 27.6732 29.2485 27.6469 28.7753C27.6207 28.2889 27.5812 27.8354 27.5286 27.4148C27.4892 26.9942 27.4366 26.6327 27.3709 26.3304C27.2526 25.844 27.1014 25.4036 26.9174 25.0093C26.7334 24.6018 26.4968 24.26 26.2076 23.984C25.9184 23.708 25.5766 23.4976 25.1823 23.3531C24.7879 23.1953 24.3213 23.1164 23.7824 23.1164C23.204 23.1164 22.6453 23.2085 22.1064 23.3925C21.5806 23.5765 21.0745 23.8263 20.5882 24.1417C20.1018 24.4441 19.6352 24.799 19.1882 25.2065C18.7413 25.614 18.3141 26.0346 17.9066 26.4684C17.67 27.9275 17.4597 29.2157 17.2757 30.333C17.1048 31.4503 16.947 32.4559 16.8025 33.3497C16.6579 34.2304 16.5264 35.0191 16.4081 35.7158C16.303 36.3993 16.1978 37.0434 16.0926 37.6481C15.9875 38.2527 15.8889 38.8377 15.7969 39.4029C15.7049 39.9681 15.6063 40.5596 15.5011 41.1775H12.0703Z" fill="#363636"/>
</svg>
